<svg width="1200" height="1200" viewBox="0 0 1200 1200" fill="none" xmlns="http://www.w3.org/2000/svg">
  <defs>
    <linearGradient id="g" x1="0" y1="0" x2="1200" y2="1200" gradientUnits="userSpaceOnUse">
      <stop stop-color="#0b1d26"/>
      <stop offset="1" stop-color="#06221f"/>
    </linearGradient>
    <radialGradient id="glow" cx="0" cy="0" r="1" gradientUnits="userSpaceOnUse" gradientTransform="translate(420 360) rotate(35) scale(520 520)">
      <stop stop-color="#00cba7" stop-opacity="0.42"/>
      <stop offset="1" stop-color="#00cba7" stop-opacity="0"/>
    </radialGradient>
    <radialGradient id="glow2" cx="0" cy="0" r="1" gradientUnits="userSpaceOnUse" gradientTransform="translate(860 920) rotate(15) scale(520 520)">
      <stop stop-color="#7cffb2" stop-opacity="0.28"/>
      <stop offset="1" stop-color="#7cffb2" stop-opacity="0"/>
    </radialGradient>
    <linearGradient id="glass" x1="0" y1="0" x2="1200" y2="1200" gradientUnits="userSpaceOnUse">
      <stop stop-color="white" stop-opacity="0.14"/>
      <stop offset="1" stop-color="white" stop-opacity="0.05"/>
    </linearGradient>
  </defs>

  <rect width="1200" height="1200" rx="84" fill="url(#g)"/>
  <path d="M0 0H1200V1200H0V0Z" fill="url(#glow)"/>
  <path d="M0 0H1200V1200H0V0Z" fill="url(#glow2)"/>

  <rect x="110" y="130" width="980" height="940" rx="72" fill="url(#glass)" stroke="white" stroke-opacity="0.18" stroke-width="2"/>

  <g>
    <circle cx="600" cy="520" r="150" fill="white" fill-opacity="0.12"/>
    <path d="M330 980C330 855.147 431.147 754 556 754H644C768.853 754 870 855.147 870 980V1010H330V980Z" fill="white" fill-opacity="0.10"/>
  </g>

  <g opacity="0.9">
    <circle cx="914" cy="268" r="3" fill="#00cba7"/>
    <circle cx="940" cy="292" r="2" fill="#7cffb2"/>
    <circle cx="888" cy="292" r="2" fill="white" fill-opacity="0.6"/>
    <circle cx="286" cy="286" r="3" fill="#7cffb2"/>
    <circle cx="312" cy="312" r="2" fill="#00cba7"/>
    <circle cx="260" cy="312" r="2" fill="white" fill-opacity="0.6"/>
  </g>

  <text x="600" y="560" text-anchor="middle" font-family="Montserrat, system-ui, -apple-system, Segoe UI, Roboto, Arial" font-size="64" font-weight="800" fill="white" fill-opacity="0.85">FOUNDER</text>
  <text x="600" y="632" text-anchor="middle" font-family="Poppins, system-ui, -apple-system, Segoe UI, Roboto, Arial" font-size="28" font-weight="600" fill="white" fill-opacity="0.65">Foto ilustrativa</text>
</svg>
