<svg width="1200" height="800" viewBox="0 0 1200 800" fill="none" xmlns="http://www.w3.org/2000/svg">
  <defs>
    <linearGradient id="bg" x1="1200" y1="0" x2="0" y2="800" gradientUnits="userSpaceOnUse">
      <stop stop-color="#0b1d26"/>
      <stop offset="1" stop-color="#06221f"/>
    </linearGradient>
    <radialGradient id="glow1" cx="0" cy="0" r="1" gradientUnits="userSpaceOnUse" gradientTransform="translate(360 220) rotate(35) scale(520 420)">
      <stop stop-color="#00cba7" stop-opacity="0.55"/>
      <stop offset="1" stop-color="#00cba7" stop-opacity="0"/>
    </radialGradient>
    <radialGradient id="glow2" cx="0" cy="0" r="1" gradientUnits="userSpaceOnUse" gradientTransform="translate(920 640) rotate(10) scale(520 420)">
      <stop stop-color="#7cffb2" stop-opacity="0.42"/>
      <stop offset="1" stop-color="#7cffb2" stop-opacity="0"/>
    </radialGradient>
    <linearGradient id="card" x1="0" y1="0" x2="1200" y2="800" gradientUnits="userSpaceOnUse">
      <stop stop-color="white" stop-opacity="0.12"/>
      <stop offset="1" stop-color="white" stop-opacity="0.04"/>
    </linearGradient>
    <filter id="soft" x="-60" y="-60" width="1320" height="920" filterUnits="userSpaceOnUse" color-interpolation-filters="sRGB">
      <feGaussianBlur stdDeviation="12"/>
    </filter>
  </defs>

  <rect width="1200" height="800" rx="56" fill="url(#bg)"/>
  <path d="M0 0H1200V800H0V0Z" fill="url(#glow1)"/>
  <path d="M0 0H1200V800H0V0Z" fill="url(#glow2)"/>

  <g opacity="0.35">
    <path d="M120 640C260 520 380 460 520 440C680 420 820 460 980 520" stroke="white" stroke-opacity="0.22" stroke-width="2"/>
    <path d="M140 680C300 560 420 500 560 480C720 460 860 500 1040 580" stroke="white" stroke-opacity="0.16" stroke-width="2"/>
  </g>

  <g filter="url(#soft)">
    <rect x="98" y="98" width="1004" height="604" rx="44" fill="url(#card)" stroke="white" stroke-opacity="0.16" stroke-width="2"/>
  </g>

  <g>
    <path d="M720 246C720 186.353 768.353 138 828 138C887.647 138 936 186.353 936 246C936 305.647 887.647 354 828 354C768.353 354 720 305.647 720 246Z" fill="white" fill-opacity="0.08"/>
    <path d="M300 582C300 518.862 351.862 467 415 467H541C604.138 467 656 518.862 656 582V636H300V582Z" fill="white" fill-opacity="0.07"/>
    <path d="M408 402C408 356.713 444.713 320 490 320C535.287 320 572 356.713 572 402C572 447.287 535.287 484 490 484C444.713 484 408 447.287 408 402Z" fill="white" fill-opacity="0.10"/>
  </g>

  <g>
    <path d="M758 612C742 556 776 498 836 492C898 486 938 530 936 590C934 650 886 680 834 672C800 666 770 646 758 612Z" fill="#00cba7" fill-opacity="0.25"/>
    <path d="M788 596C780 566 800 534 836 530C872 526 900 552 898 586C896 620 868 636 838 632C816 630 796 616 788 596Z" fill="#7cffb2" fill-opacity="0.22"/>
  </g>

  <g>
    <path d="M826 420C808 386 818 352 842 340C866 328 902 344 920 378C938 412 928 446 904 458C880 470 844 454 826 420Z" fill="white" fill-opacity="0.10"/>
    <path d="M828 368C828 336 854 310 886 310C918 310 944 336 944 368C944 400 918 426 886 426C854 426 828 400 828 368Z" fill="white" fill-opacity="0.08"/>
    <path d="M758 536C736 488 746 438 788 424C830 410 886 456 908 504C930 552 920 602 878 616C836 630 780 584 758 536Z" fill="white" fill-opacity="0.10"/>
  </g>

  <g>
    <path d="M360 628C340 560 372 492 444 472C516 452 596 500 616 568C636 636 604 704 532 724C460 744 380 696 360 628Z" fill="white" fill-opacity="0.10"/>
    <path d="M404 514C404 474.235 436.235 442 476 442C515.765 442 548 474.235 548 514C548 553.765 515.765 586 476 586C436.235 586 404 553.765 404 514Z" fill="white" fill-opacity="0.08"/>
    <path d="M504 468C484 430 496 392 524 378C552 364 594 380 614 418C634 456 622 494 594 508C566 522 524 506 504 468Z" fill="white" fill-opacity="0.08"/>
  </g>

  <g opacity="0.9">
    <circle cx="980" cy="210" r="3" fill="#00cba7"/>
    <circle cx="1006" cy="232" r="2" fill="#7cffb2"/>
    <circle cx="954" cy="234" r="2" fill="white" fill-opacity="0.6"/>
    <circle cx="220" cy="222" r="3" fill="#7cffb2"/>
    <circle cx="246" cy="246" r="2" fill="#00cba7"/>
    <circle cx="194" cy="246" r="2" fill="white" fill-opacity="0.6"/>
  </g>
</svg>
